<?xml version="1.0" encoding="iso-8859-1"?>
<!-- Generator: Adobe Illustrator 18.1.1, SVG Export Plug-In . SVG Version: 6.00 Build 0)  -->
<svg version="1.1" id="Ebene_1" xmlns="http://www.w3.org/2000/svg" xmlns:xlink="http://www.w3.org/1999/xlink" x="0px" y="0px"
	 viewBox="0 0 841.89 595.28" style="enable-background:new 0 0 841.89 595.28;" xml:space="preserve">
<path style="fill:#7AE793;" d="M138.187,90.016c-10.756,12.538-23.63,15.644-35.779,9.033c-0.335,3.132,0.871,4.549,3.909,5.24
	c5.681,1.291,11.32,2.832,16.878,4.584c10.423,3.286,17.587,10.01,21.512,20.374c2.73,7.209,4.735,14.488,5.245,22.445
	c-43.791,0-87.301,0-131.159,0c0.255-9.07,2.938-17.334,6.473-25.454c3.862-8.87,10.776-14.141,19.594-17.172
	c5.144-1.768,10.363-3.662,15.701-4.424c4.845-0.692,6.187-3.25,6.513-7.869c-15.312,7.824-29.313,5.314-42.947-4.793
	c1.513-0.236,2.493-0.432,3.483-0.537c10.158-1.082,16.069-6.838,16.88-16.961c0.34-4.247,0.53-8.657-0.215-12.814
	C40.83,42.45,53.189,25.48,71.266,19.758c12.038-3.811,23.242-2.627,33.461,5.387c3.847,3.017,8.474,5.093,12.105,8.319
	c7.835,6.962,10.083,16.259,9.958,26.428c-0.079,6.481-0.012,12.998,0.587,19.443C127.931,85.297,130.216,90.322,138.187,90.016z
	 M37.257,93.894c6.377,4.931,21.569,3.692,28.259-2.006c-8.77-10.482-12.568-22.891-14.215-36.322
	c20.39,2.039,36.141-7.433,51.496-19.101c0.116,1.657,0.137,2.662,0.262,3.653c1.152,9.136,3.77,17.671,11.634,23.313
	c2.532,1.817,2.752,3.317,1.6,5.748c-1.055,2.226-1.772,4.638-3.016,6.745c-3.402,5.765-7.003,11.412-10.588,17.207
	c6.82,8.049,19.561,5.795,25.337-0.171c-1.684-3.995-4.021-7.507-4.566-11.279c-0.959-6.637-1.17-13.438-1.054-20.159
	c0.138-8.02-0.715-15.756-5.933-22.071c-6.601-7.988-15.628-13.189-25.188-16.092c-19.62-5.957-47.306,10.823-42.59,38.556
	C50.802,74.297,49.474,86.244,37.257,93.894z M47.742,147.113c24.668,0,48.925,0,73.461,0c0.586-10.707,3.235-20.633,9.655-30.412
	c-6.186-2.211-12.016-4.152-17.725-6.397c-2.785-1.095-4.204-0.154-5.716,2.117c-4.069,6.111-8.359,12.075-12.815,18.461
	c-2.311-3.082-4.315-5.763-6.328-8.436c-2.302-3.058-4.344-3.063-6.706,0.044c-2.059,2.709-4.053,5.467-6.254,8.446
	c-4.764-6.851-9.162-13.274-13.704-19.594c-0.614-0.854-2.078-1.844-2.921-1.67c-7.071,1.46-13.95,3.531-20.289,7.574
	C44.338,126.434,47.089,136.326,47.742,147.113z M56.494,60.61c0.774,3.241,1.284,6.161,2.174,8.959
	c3.384,10.633,8.492,20.043,18.484,26.06c4.549,2.74,8.778,3.005,13.461,0.203c10.485-6.272,16.38-16.02,20.854-26.868
	c0.311-0.755-0.611-2.177-1.216-3.125c-2.973-4.656-6.192-9.163-8.988-13.92c-1.177-2.003-1.528-4.491-2.351-7.06
	C86.078,54.016,72.469,60.017,56.494,60.61z M42.891,147.125c0.266-9.291-3.691-21.685-8.603-26.936
	c-6.039,7.985-9.084,17.019-10.687,26.936C30.093,147.125,36.377,147.125,42.891,147.125z M96.427,97.959
	c-11.536,6.254-11.536,6.254-24.247,0.154c-3.468,6.754-2.884,9.203,3.421,14.352c5.45,4.45,11.617,4.558,17.078,0.298
	C99.339,107.566,99.945,105.262,96.427,97.959z M134.386,120.381c-5.096,5.889-9.203,19.448-8.255,26.64c6.235,0,12.471,0,18.859,0
	C143.353,137.174,140.481,128.221,134.386,120.381z M94.506,123.258c3.566-5.144,6.832-9.856,10.098-14.568
	c-0.24-0.244-0.48-0.488-0.72-0.732c-4.014,3.795-8.028,7.591-12.189,11.525C92.405,120.436,93.247,121.567,94.506,123.258z
	 M77.958,119.872c-3.663-3.056-7.151-5.967-10.64-8.877c-0.102,0.057-0.205,0.114-0.307,0.171c2.733,3.934,5.466,7.867,8.38,12.063
	C76.444,121.851,77.291,120.743,77.958,119.872z"/>
<g>
	<path style="fill:#7AE793;" d="M197.187,123.396c-6.422,0.42-9.749-2.845-10.582-8.245c-3.71,0.129-6.98-0.975-8.8-4.508
		c-1.803-3.501-1.252-6.847,1.421-10.05c-3.531-2.939-7.027-5.856-10.531-8.765c-3.473-2.882-6.929-5.784-10.441-8.617
		c-1.461-1.179-1.704-2.311-0.577-3.902c6.538-9.229,13.036-18.487,19.515-27.758c1.011-1.447,2.114-1.784,3.716-0.971
		c1.165,0.591,2.448,0.954,3.687,1.393c4.105,1.456,8.088,1.231,12.158-0.414c3.258-1.316,6.653-2.431,10.089-3.143
		c6.271-1.3,12.075,0.332,17.525,3.532c0.645,0.379,1.764,0.624,2.352,0.323c7.835-4.011,15.697-4.014,23.642-0.414
		c1.136,0.515,2.332,0.939,3.383,1.595c5.132,3.203,10.476,3.054,15.994,1.233c3.261-1.076,3.352-0.994,5.094,1.989
		c5.349,9.16,10.697,18.321,16.043,27.483c1.67,2.862,1.607,3.177-1.046,5.026c-5.976,4.166-11.958,8.323-17.935,12.488
		c-0.622,0.433-1.228,0.887-2.309,1.67c1.035,0.842,2,1.504,2.819,2.313c3.311,3.267,4.158,6.867,2.5,10.324
		c-1.759,3.669-5.183,5.309-9.895,4.74c-3.296,7.135-5.932,8.51-12.772,6.66c-2.452,5.622-4.75,6.895-11.054,6.211
		c-0.467-0.051-1.039,0.211-1.458,0.486c-3.373,2.225-7.029,2.737-10.952,2.017c-0.842-0.155-1.794-0.113-2.621,0.111
		c-6.904,1.875-13.043,0.859-18.115-4.551c-0.322-0.344-0.926-0.579-1.406-0.594C201.201,130.894,198.757,128.954,197.187,123.396z
		 M236.944,130.897c-0.092-0.198-0.106-0.275-0.152-0.322c-1.901-1.929-3.794-3.866-5.714-5.776
		c-1.019-1.013-1.838-2.131-0.579-3.389c1.199-1.199,2.401-0.591,3.437,0.446c1.963,1.967,3.926,3.934,5.893,5.898
		c2.618,2.615,5.025,2.924,7.067,0.912c2.044-2.014,1.722-4.604-0.906-7.235c-3.241-3.244-6.486-6.484-9.728-9.728
		c-1.945-1.946-2.357-3.252-1.166-4.14c1.813-1.351,2.899,0.108,4.028,1.238c4.322,4.325,8.646,8.648,12.971,12.97
		c2.851,2.848,5.248,3.185,7.358,1.04c2.011-2.045,1.652-4.513-1.051-7.218c-1.13-1.13-2.26-2.26-3.39-3.39
		c-4.274-4.274-8.549-8.549-12.823-12.823c-1.099-1.099-2.478-2.304-0.895-3.828c1.587-1.528,2.731-0.037,3.816,1.036
		c0.346,0.342,0.689,0.687,1.033,1.031c5.65,5.65,11.295,11.305,16.958,16.942c0.634,0.631,1.307,1.277,2.079,1.707
		c2.876,1.606,6.535-0.461,6.343-3.731c-0.077-1.312-0.846-2.787-1.736-3.807c-1.867-2.137-4.046-3.998-6.055-6.015
		c-8.923-8.954-17.83-17.923-26.745-26.884c-2.365-2.377-2.563-2.421-5.2-0.218c-1.165,0.973-2.208,2.11-3.214,3.254
		c-1.605,1.824-2.99,3.866-4.732,5.541c-2.228,2.143-4.533,4.315-7.145,5.92c-2.723,1.673-5.853,1.397-8.419-0.612
		c-2.412-1.887-2.436-4.676-1.975-7.454c0.877-5.285,3.231-9.993,5.779-14.619c2.557-4.643,5.795-8.755,9.963-12.297
		c-3.488-2.062-6.996-3.148-10.816-3.259c-4.642-0.135-8.869,1.471-13.016,3.222c-4.977,2.102-9.932,2.27-14.996,0.493
		c-1.085-0.381-2.181-0.729-3.269-1.09c-6.152,8.753-12.197,17.353-18.286,26.016c6.932,5.747,13.659,11.324,20.473,16.974
		c2.373-2.36,4.982-3.842,8.419-3.198c3.481,0.652,5.54,2.874,6.835,6.157c2.742-2.508,5.722-3.443,9.145-2.34
		c3.538,1.141,5.18,3.919,5.892,7.287c6.658-0.487,10.38,2.965,10.401,9.346c0.002,0.599,0.285,1.348,0.699,1.771
		c4.085,4.173,4.329,5.39,1.718,10.788c-0.557,1.151-0.396,1.903,0.561,2.701C228.824,132.734,233.322,133.065,236.944,130.897z
		 M266.938,100.187c6.877-4.791,13.562-9.448,20.288-14.134c-0.391-0.71-0.646-1.197-0.922-1.671
		c-4.715-8.082-9.466-16.144-14.115-24.263c-0.732-1.278-1.403-1.547-2.786-1.136c-5.816,1.728-11.47,1.552-16.867-1.604
		c-1.604-0.938-3.366-1.625-5.095-2.329c-7.878-3.207-15.283-2.132-21.981,2.937c-7.721,5.843-11.928,14.064-14.765,23.083
		c-0.366,1.164-0.355,2.453-0.464,3.689c-0.14,1.591,0.818,2.575,2.21,2.296c1.751-0.351,3.722-0.896,5.002-2.03
		c2.474-2.193,4.535-4.852,6.758-7.326c2.817-3.136,5.39-6.548,9.745-7.794c1.501-0.429,2.609-0.227,3.722,0.952
		c2.429,2.575,4.987,5.027,7.49,7.532C252.37,85.605,259.581,92.823,266.938,100.187z M208.268,106.971
		c-0.083-2.473-0.884-3.874-2.543-4.628c-1.798-0.816-3.544-0.581-4.98,0.828c-2.869,2.813-5.717,5.65-8.522,8.527
		c-1.939,1.99-1.97,4.47-0.189,6.296c1.777,1.822,4.479,1.809,6.472-0.132c2.779-2.707,5.55-5.427,8.209-8.25
		C207.518,108.76,207.939,107.548,208.268,106.971z M201.393,121.865c-0.024,2.588,0.866,3.993,2.588,4.795
		c1.847,0.861,3.557,0.402,4.959-0.962c2.881-2.802,5.734-5.635,8.522-8.529c1.819-1.888,1.759-4.653,0.017-6.339
		c-1.788-1.729-4.395-1.686-6.31,0.191c-2.82,2.765-5.638,5.536-8.353,8.404C202.059,120.227,201.669,121.377,201.393,121.865z
		 M184.892,111.507c0.132-0.121,0.265-0.243,0.397-0.364c0.715-0.229,1.61-0.262,2.114-0.723c1.88-1.716,3.796-3.441,5.383-5.417
		c1.324-1.647,0.807-4.033-0.738-5.436c-1.597-1.451-3.776-1.715-5.503-0.306c-1.758,1.434-3.382,3.074-4.852,4.805
		c-1.151,1.356-1.376,3.191-0.287,4.625C182.283,109.846,183.709,110.584,184.892,111.507z M222.652,132.835
		c-2.708-2.715-2.116-5.262-0.638-7.877c1.345-2.379,1.114-3.247-0.962-4.943c-3.126,3.125-6.237,6.235-9.447,9.444
		C214.358,132.404,217.964,133.404,222.652,132.835z"/>
</g>
<g>
	<path style="fill:#7AE793;" d="M34.267,213.202c-3.867,3.693-7.263,6.936-10.659,10.179c-0.251,0.24-0.486,0.498-0.752,0.721
		c-1.529,1.281-3.3,1.291-4.467,0.033c-1.152-1.241-1.06-3.063,0.378-4.465c3.83-3.731,7.706-7.416,11.572-11.11
		c9.237-8.827,18.478-17.65,27.718-26.474c7.985-7.626,15.964-15.258,23.958-22.874c1.747-1.664,3.317-1.641,5.096,0.059
		c13.555,12.954,27.1,25.919,40.651,38.877c7.277,6.959,14.562,13.91,21.843,20.864c0.151,0.144,0.304,0.286,0.451,0.433
		c1.658,1.667,1.863,3.408,0.561,4.751c-1.26,1.299-2.941,1.26-4.609-0.287c-3.055-2.833-6.038-5.742-9.054-8.616
		c-0.547-0.521-1.111-1.026-2.153-1.987c0,1.244,0,2.01,0,2.776c0,23.486,0,46.973-0.001,70.459c0,0.695,0.034,1.393-0.021,2.084
		c-0.171,2.147-1.135,3.193-3.302,3.202c-10.909,0.044-21.819,0.049-32.728-0.003c-2.362-0.011-3.318-1.223-3.322-3.824
		c-0.012-8.964-0.005-17.928-0.005-26.891c0-0.755,0-1.509,0-2.436c-7.254,0-14.365,0-21.778,0c0,0.708,0,1.446,0,2.183
		c0,8.964,0.004,17.928-0.003,26.891c-0.002,3.115-0.969,4.098-4.113,4.103c-10.284,0.015-20.568,0.011-30.852,0.003
		c-3.655-0.003-4.408-0.758-4.409-4.426c-0.005-23.625-0.003-47.251-0.003-70.876C34.267,215.654,34.267,214.756,34.267,213.202z
		 M84.592,165.181c-0.445,0.364-0.673,0.526-0.873,0.718c-14.047,13.447-28.106,26.882-42.099,40.385
		c-0.729,0.703-1.274,1.983-1.276,2.995c-0.07,24.807-0.055,49.615-0.05,74.423c0,0.668,0.064,1.335,0.099,2.022
		c9.123,0,18.057,0,27.233,0c0-0.919,0-1.733,0-2.548c0-8.825-0.012-17.65,0.007-26.475c0.007-3.265,0.984-4.216,4.241-4.218
		c8.339-0.007,16.677-0.004,25.016-0.002c3.658,0.001,4.55,0.88,4.553,4.539c0.009,8.756,0.003,17.511,0.003,26.267
		c0,0.799,0,1.598,0,2.439c9.261,0,18.192,0,27.26,0c0.028-0.566,0.072-1.038,0.072-1.509c0.003-25.086,0.014-50.171-0.042-75.257
		c-0.002-0.836-0.465-1.89-1.069-2.474c-10.089-9.746-20.235-19.434-30.368-29.135C93.092,173.324,88.887,169.296,84.592,165.181z"
		/>
</g>
<g>
	<path style="fill:#7AE793;" d="M224.593,292.931c-4.588-4.411-9.095-8.556-13.389-12.909c-9.423-9.554-19.137-18.862-28.026-28.897
		c-27.657-31.22-12.543-80.035,27.8-90.522c31.001-8.059,62.961,12.652,68.202,44.317c2.867,17.323-1.495,32.792-12.972,46.043
		C253.35,265.81,238.896,279.103,224.593,292.931z M224.447,284.848c0.393-0.22,0.536-0.263,0.629-0.357
		c12.021-12.115,24.312-23.979,35.978-36.428c10.888-11.618,15.083-25.789,12.573-41.542c-4.4-27.614-30.157-45.938-57.775-40.961
		c-18.375,3.312-31.252,14.114-37.74,31.527c-6.583,17.668-3.865,34.567,8.396,48.928c9.319,10.915,19.885,20.767,29.932,31.057
		C219.027,279.722,221.751,282.238,224.447,284.848z"/>
	<path style="fill:#7AE793;" d="M225.755,194.342c10.626,0.358,19.686,9.977,18.882,21.355
		c-0.802,11.356-10.619,19.655-21.543,18.723c-11.271-0.962-19.581-10.769-18.567-21.489
		C205.585,201.726,215.171,193.332,225.755,194.342z M224.668,200.057c-7.819-0.093-14.358,6.289-14.48,14.131
		c-0.122,7.829,6.467,14.533,14.316,14.565c7.798,0.032,14.32-6.362,14.481-14.195C239.145,206.745,232.636,200.151,224.668,200.057
		z"/>
</g>
<g>
	<path style="fill:#7AE793;" d="M385.906,203.193c-8.113,0.53-12.315-3.594-13.367-10.415c-4.687,0.163-8.818-1.232-11.116-5.695
		c-2.277-4.422-1.581-8.649,1.795-12.696c-4.46-3.713-8.877-7.398-13.304-11.072c-4.387-3.641-8.753-7.306-13.19-10.885
		c-1.846-1.489-2.153-2.92-0.729-4.929c8.26-11.658,16.467-23.353,24.652-35.065c1.277-1.828,2.67-2.254,4.694-1.227
		c1.472,0.746,3.092,1.205,4.658,1.76c5.186,1.84,10.217,1.554,15.358-0.523c4.116-1.663,8.404-3.071,12.744-3.971
		c7.922-1.643,15.253,0.42,22.138,4.462c0.814,0.478,2.228,0.788,2.971,0.407c9.898-5.067,19.829-5.071,29.866-0.522
		c1.435,0.65,2.946,1.186,4.273,2.014c6.483,4.046,13.233,3.858,20.204,1.558c4.12-1.359,4.234-1.255,6.435,2.513
		c6.758,11.571,13.513,23.144,20.266,34.718c2.11,3.616,2.029,4.014-1.321,6.349c-7.549,5.262-15.106,10.515-22.656,15.775
		c-0.785,0.547-1.552,1.121-2.917,2.109c1.308,1.063,2.526,1.9,3.562,2.922c4.183,4.127,5.252,8.675,3.158,13.042
		c-2.222,4.635-6.547,6.707-12.499,5.988c-4.164,9.014-7.494,10.75-16.134,8.413c-3.097,7.102-6.001,8.71-13.963,7.846
		c-0.589-0.064-1.313,0.266-1.841,0.615c-4.261,2.811-8.879,3.457-13.835,2.548c-1.064-0.195-2.267-0.143-3.311,0.141
		c-8.722,2.368-16.476,1.085-22.884-5.749c-0.407-0.434-1.169-0.732-1.777-0.75C390.977,212.665,387.89,210.215,385.906,203.193z
		 M436.129,212.669c-0.116-0.25-0.134-0.348-0.192-0.407c-2.402-2.436-4.793-4.884-7.218-7.296c-1.287-1.28-2.321-2.692-0.731-4.281
		c1.515-1.514,3.033-0.747,4.341,0.564c2.48,2.485,4.96,4.97,7.444,7.451c3.307,3.303,6.347,3.694,8.927,1.152
		c2.583-2.544,2.175-5.816-1.145-9.14c-4.094-4.098-8.194-8.191-12.288-12.289c-2.457-2.459-2.977-4.108-1.474-5.23
		c2.29-1.707,3.662,0.136,5.089,1.563c5.46,5.463,10.922,10.925,16.385,16.384c3.601,3.598,6.63,4.023,9.294,1.314
		c2.541-2.583,2.087-5.702-1.327-9.118c-1.427-1.428-2.855-2.855-4.283-4.282c-5.4-5.4-10.799-10.799-16.199-16.199
		c-1.388-1.388-3.131-2.91-1.131-4.835c2.005-1.93,3.45-0.047,4.82,1.308c0.437,0.432,0.87,0.868,1.305,1.302
		c7.138,7.137,14.268,14.281,21.422,21.402c0.801,0.797,1.652,1.613,2.626,2.157c3.634,2.028,8.256-0.583,8.013-4.714
		c-0.098-1.658-1.069-3.521-2.194-4.809c-2.358-2.7-5.111-5.051-7.649-7.598c-11.272-11.311-22.523-22.641-33.786-33.961
		c-2.988-3.003-3.238-3.058-6.569-0.276c-1.472,1.229-2.789,2.666-4.06,4.11c-2.028,2.304-3.777,4.883-5.977,7
		c-2.814,2.707-5.726,5.451-9.026,7.478c-3.44,2.113-7.393,1.764-10.636-0.773c-3.046-2.384-3.078-5.907-2.495-9.416
		c1.108-6.677,4.082-12.623,7.3-18.467c3.23-5.866,7.321-11.06,12.586-15.534c-4.406-2.605-8.838-3.976-13.663-4.117
		c-5.865-0.171-11.203,1.858-16.443,4.071c-6.287,2.655-12.546,2.868-18.943,0.623c-1.37-0.481-2.755-0.92-4.129-1.378
		c-7.772,11.058-15.407,21.921-23.099,32.865c8.757,7.26,17.254,14.305,25.863,21.442c2.998-2.981,6.293-4.853,10.635-4.039
		c4.397,0.824,6.998,3.63,8.634,7.778c3.463-3.168,7.228-4.35,11.552-2.955c4.47,1.441,6.544,4.95,7.443,9.205
		c8.411-0.615,13.112,3.745,13.139,11.806c0.003,0.757,0.36,1.703,0.883,2.238c5.16,5.271,5.468,6.809,2.17,13.627
		c-0.703,1.453-0.5,2.405,0.708,3.412C425.872,214.989,431.554,215.408,436.129,212.669z M474.019,173.875
		c8.687-6.052,17.132-11.935,25.629-17.855c-0.494-0.897-0.815-1.512-1.165-2.111c-5.956-10.21-11.958-20.393-17.831-30.651
		c-0.924-1.614-1.772-1.954-3.52-1.435c-7.347,2.183-14.489,1.96-21.307-2.026c-2.027-1.185-4.252-2.052-6.436-2.942
		c-9.951-4.051-19.306-2.693-27.767,3.71c-9.753,7.381-15.068,17.767-18.652,29.159c-0.462,1.47-0.448,3.099-0.586,4.66
		c-0.177,2.01,1.034,3.252,2.791,2.9c2.212-0.443,4.702-1.132,6.319-2.565c3.125-2.77,5.729-6.129,8.537-9.255
		c3.559-3.961,6.809-8.272,12.31-9.846c1.896-0.542,3.296-0.287,4.702,1.202c3.068,3.252,6.3,6.351,9.462,9.515
		C455.616,155.453,464.725,164.572,474.019,173.875z M399.905,182.445c-0.105-3.124-1.117-4.894-3.212-5.846
		c-2.271-1.031-4.477-0.734-6.292,1.046c-3.625,3.554-7.223,7.137-10.766,10.772c-2.45,2.513-2.488,5.647-0.239,7.954
		c2.245,2.302,5.659,2.285,8.176-0.167c3.511-3.42,7.011-6.856,10.37-10.422C398.957,184.705,399.49,183.174,399.905,182.445z
		 M391.22,201.259c-0.03,3.269,1.094,5.044,3.27,6.057c2.333,1.087,4.493,0.508,6.264-1.215c3.64-3.54,7.244-7.118,10.766-10.774
		c2.298-2.385,2.222-5.878,0.021-8.007c-2.259-2.185-5.552-2.13-7.971,0.242c-3.563,3.493-7.123,6.994-10.551,10.616
		C392.061,199.19,391.568,200.643,391.22,201.259z M370.375,188.174c0.167-0.153,0.334-0.307,0.501-0.46
		c0.904-0.29,2.034-0.332,2.671-0.913c2.375-2.168,4.795-4.347,6.8-6.843c1.672-2.081,1.02-5.094-0.932-6.868
		c-2.018-1.833-4.77-2.166-6.952-0.386c-2.221,1.811-4.273,3.883-6.129,6.07c-1.454,1.713-1.738,4.031-0.363,5.842
		C367.079,186.076,368.881,187.008,370.375,188.174z M418.076,215.117c-3.421-3.43-2.673-6.647-0.805-9.95
		c1.698-3.005,1.407-4.102-1.215-6.244c-3.949,3.948-7.878,7.876-11.934,11.93C407.597,214.573,412.152,215.836,418.076,215.117z"/>
</g>
</svg>
